<svg width="177" height="41" viewBox="0 0 177 41" fill="none" xmlns="http://www.w3.org/2000/svg">
<path d="M170.134 32.1154C170.614 31.3714 170.89 30.5554 170.962 29.6674C171.034 28.7794 171.07 27.9034 171.07 27.0394C170.374 27.9274 169.522 28.5514 168.514 28.9114C167.506 29.2714 166.414 29.4514 165.238 29.4514C163.87 29.4514 162.682 29.2474 161.674 28.8394C160.69 28.4314 159.91 27.8074 159.334 26.9674C158.758 26.1994 158.362 25.2994 158.146 24.2674C157.93 23.2114 157.822 22.0714 157.822 20.8474V10.1914H162.898V20.2354C162.898 20.8834 162.946 21.5194 163.042 22.1434C163.162 22.7434 163.402 23.2474 163.762 23.6554C164.338 24.5194 165.382 24.9514 166.894 24.9514C167.614 24.9514 168.286 24.8074 168.91 24.5194C169.534 24.2074 170.026 23.7274 170.386 23.0794C170.698 22.5274 170.89 21.9514 170.962 21.3514C171.034 20.7274 171.07 20.0554 171.07 19.3354V10.1914H176.182V25.7794C176.182 26.6434 176.17 27.5314 176.146 28.4434C176.146 29.3314 176.074 30.2074 175.93 31.0714C175.81 31.9354 175.582 32.7754 175.246 33.5914C174.91 34.4074 174.442 35.1634 173.842 35.8594C173.002 36.8194 171.898 37.5874 170.53 38.1634C169.186 38.7394 167.566 39.0154 165.67 38.9914C164.278 39.0154 162.898 38.8234 161.53 38.4154C160.162 38.0314 158.902 37.4674 157.75 36.7234L159.37 32.4034C159.994 32.8594 160.822 33.2794 161.854 33.6634C162.91 34.0474 164.146 34.2394 165.562 34.2394C166.714 34.2394 167.65 34.0474 168.37 33.6634C169.114 33.3034 169.702 32.7874 170.134 32.1154Z" fill="white"/>
<path d="M146.717 24.9519C147.677 24.9519 148.433 24.7239 148.985 24.2679C149.561 23.8119 149.909 23.2959 150.029 22.7199H155.357C155.189 23.9439 154.841 24.9759 154.313 25.8159C153.785 26.6559 153.125 27.3519 152.333 27.9039C151.565 28.4559 150.689 28.8519 149.705 29.0919C148.721 29.3319 147.701 29.4519 146.645 29.4519C145.061 29.4519 143.681 29.2359 142.505 28.8039C141.353 28.3479 140.393 27.6999 139.625 26.8599C138.857 25.9959 138.269 24.9639 137.861 23.7639C137.477 22.5399 137.285 21.1719 137.285 19.6599C137.285 18.1959 137.501 16.8519 137.933 15.6279C138.365 14.4039 138.977 13.3599 139.769 12.4959C140.585 11.6319 141.581 10.9719 142.757 10.5159C143.933 10.0359 145.277 9.7959 146.789 9.7959C147.893 9.7959 148.925 9.9279 149.885 10.1919C150.869 10.4559 151.733 10.8639 152.477 11.4159C153.245 11.9679 153.869 12.6759 154.349 13.5399C154.853 14.3799 155.189 15.3879 155.357 16.5639H150.029C149.909 15.9879 149.549 15.4719 148.949 15.0159C148.373 14.5599 147.617 14.3319 146.681 14.3319C145.889 14.3319 145.205 14.4759 144.629 14.7639C144.053 15.0519 143.597 15.4479 143.261 15.9519C142.925 16.4559 142.685 17.0319 142.541 17.6799C142.397 18.3279 142.325 19.0119 142.325 19.7319C142.325 20.4999 142.409 21.2079 142.577 21.8559C142.745 22.4799 142.997 23.0319 143.333 23.5119C143.669 23.9679 144.113 24.3279 144.665 24.5919C145.241 24.8319 145.925 24.9519 146.717 24.9519Z" fill="white"/>
<path d="M121.831 12.6038C123.367 10.7558 125.263 9.81984 127.519 9.79584C128.743 9.77184 129.823 9.97584 130.759 10.4078C131.695 10.8158 132.451 11.3798 133.027 12.0998C133.723 12.9398 134.203 13.9238 134.467 15.0518C134.731 16.1558 134.863 17.3918 134.863 18.7598V29.1638H129.751V19.1558C129.751 18.4838 129.679 17.8478 129.535 17.2478C129.415 16.6238 129.199 16.0958 128.887 15.6638C128.575 15.2078 128.155 14.8718 127.627 14.6558C127.123 14.4398 126.547 14.3318 125.899 14.3318C125.083 14.3558 124.387 14.5358 123.811 14.8718C123.259 15.2078 122.839 15.6398 122.551 16.1678C122.263 16.6718 122.059 17.2478 121.939 17.8958C121.843 18.5198 121.795 19.1558 121.795 19.8038V29.1638H116.719V10.1918H121.579L121.831 12.6038Z" fill="white"/>
<path d="M105.302 25.3119C106.022 25.3119 106.634 25.2039 107.138 24.9879C107.666 24.7479 108.098 24.3639 108.434 23.8359H113.762C113.498 24.8199 113.09 25.6719 112.538 26.3919C112.01 27.1119 111.362 27.6999 110.594 28.1559C109.85 28.6119 109.022 28.9479 108.11 29.1639C107.198 29.3559 106.238 29.4519 105.23 29.4519C102.158 29.4519 99.8303 28.5879 98.2463 26.8599C96.6863 25.1319 95.9062 22.7079 95.9062 19.5879C95.9062 18.1719 96.1103 16.8639 96.5183 15.6639C96.9503 14.4639 97.5503 13.4319 98.3183 12.5679C99.0863 11.6799 100.034 10.9959 101.162 10.5159C102.314 10.0359 103.622 9.7959 105.086 9.7959C106.79 9.7959 108.266 10.0959 109.514 10.6959C110.762 11.2959 111.746 12.1239 112.466 13.1799C113.21 14.2119 113.702 15.4239 113.942 16.8159C114.206 18.2079 114.206 19.6959 113.942 21.2799H100.982C101.078 22.4079 101.474 23.3679 102.17 24.1599C102.866 24.9279 103.91 25.3119 105.302 25.3119ZM109.226 17.7879C109.226 17.1879 109.118 16.6599 108.902 16.2039C108.686 15.7239 108.398 15.3399 108.038 15.0519C107.678 14.7399 107.246 14.5119 106.742 14.3679C106.262 14.2239 105.758 14.1519 105.23 14.1519C103.958 14.1759 102.962 14.5239 102.242 15.1959C101.546 15.8439 101.138 16.7079 101.018 17.7879H109.226Z" fill="white"/>
<path d="M88.2497 27.2198C87.5297 28.0358 86.6657 28.6118 85.6577 28.9478C84.6497 29.2838 83.5577 29.4518 82.3817 29.4518C81.2057 29.4518 80.0537 29.2718 78.9257 28.9118C77.8217 28.5278 76.8617 27.9158 76.0457 27.0758C75.1337 26.1158 74.4977 25.0118 74.1377 23.7638C73.7777 22.5158 73.5977 21.2318 73.5977 19.9118C73.5977 16.7918 74.4617 14.2958 76.1897 12.4238C76.9337 11.6078 77.8937 10.9718 79.0697 10.5158C80.2697 10.0598 81.5537 9.84385 82.9217 9.86785C83.8097 9.81985 84.7697 9.97585 85.8017 10.3358C86.8337 10.6958 87.7217 11.2958 88.4657 12.1358L89.0057 10.1918H93.3977V27.9758C93.3977 28.7438 93.3497 29.4998 93.2537 30.2438C93.1817 31.0118 93.0497 31.7438 92.8577 32.4398C92.6657 33.1598 92.3777 33.8438 91.9937 34.4918C91.5617 35.2838 91.0337 35.9558 90.4097 36.5078C89.8097 37.0598 89.1377 37.5158 88.3937 37.8758C87.6497 38.2598 86.8577 38.5358 86.0177 38.7038C85.1777 38.8718 84.3257 38.9558 83.4617 38.9558C82.3577 38.9558 81.3017 38.8238 80.2937 38.5598C79.2857 38.3198 78.3617 37.9118 77.5217 37.3358C76.7057 36.7838 76.0217 36.0758 75.4697 35.2118C74.9417 34.3478 74.5937 33.3158 74.4257 32.1158H79.8257C79.9217 32.6918 80.3057 33.2078 80.9777 33.6638C81.6497 34.1198 82.4657 34.3478 83.4257 34.3478C84.4577 34.3478 85.2977 34.1438 85.9457 33.7358C86.6177 33.3278 87.1217 32.7878 87.4577 32.1158C87.7937 31.4438 88.0097 30.6758 88.1057 29.8118C88.2017 28.9478 88.2497 28.0838 88.2497 27.2198ZM83.5337 24.9518C84.3257 24.9518 85.0217 24.8078 85.6217 24.5198C86.2457 24.2318 86.7497 23.8478 87.1337 23.3678C87.5177 22.8638 87.8057 22.2878 87.9977 21.6398C88.1897 20.9678 88.2857 20.2598 88.2857 19.5158C88.2857 18.0278 87.8657 16.8038 87.0257 15.8438C86.2097 14.8598 85.0337 14.3558 83.4977 14.3318C82.7057 14.3318 81.9977 14.4758 81.3737 14.7638C80.7737 15.0518 80.2697 15.4358 79.8617 15.9158C79.4777 16.3958 79.1897 16.9598 78.9977 17.6078C78.8057 18.2558 78.7097 18.9518 78.7097 19.6958C78.7097 20.4878 78.8057 21.2078 78.9977 21.8558C79.2137 22.4798 79.5257 23.0318 79.9337 23.5118C80.3417 23.9678 80.8457 24.3278 81.4457 24.5918C82.0457 24.8318 82.7417 24.9518 83.5337 24.9518Z" fill="white"/>
<path d="M66.3539 26.8239C65.6339 27.7839 64.7579 28.4679 63.7259 28.8759C62.6939 29.2839 61.4939 29.4759 60.1259 29.4519C58.3739 29.4039 56.9099 28.9119 55.7339 27.9759C55.1099 27.4479 54.6179 26.8239 54.2579 26.1039C53.9219 25.3599 53.7539 24.4839 53.7539 23.4759C53.7779 22.4439 54.0059 21.5319 54.4379 20.7399C54.8939 19.9239 55.5779 19.2519 56.4899 18.7239C57.2579 18.3159 58.1219 18.0279 59.0819 17.8599C60.0659 17.6919 61.1339 17.6079 62.2859 17.6079H66.1739C66.2459 16.4319 65.9699 15.5559 65.3459 14.9799C64.7459 14.3799 63.8939 14.0679 62.7899 14.0439C62.4299 14.0439 62.0579 14.0679 61.6739 14.1159C61.2899 14.1639 60.9299 14.2599 60.5939 14.4039C60.2819 14.5479 60.0059 14.7519 59.7659 15.0159C59.5499 15.2559 59.4059 15.5559 59.3339 15.9159H54.1139C54.2339 14.7639 54.5459 13.8039 55.0499 13.0359C55.5779 12.2439 56.2379 11.6079 57.0299 11.1279C57.8219 10.6479 58.6979 10.3119 59.6579 10.1199C60.6419 9.9039 61.6499 9.7959 62.6819 9.7959C63.2579 9.7959 63.8459 9.8319 64.4459 9.9039C65.0459 9.9519 65.6339 10.0719 66.2099 10.2639C66.7859 10.4319 67.3259 10.6719 67.8299 10.9839C68.3579 11.2719 68.8499 11.6559 69.3059 12.1359C70.1219 13.0719 70.6259 14.1519 70.8179 15.3759C71.0339 16.5759 71.1299 17.7519 71.1059 18.9039V29.1639H66.4619L66.3539 26.8239ZM66.1739 20.7759H62.4659C62.1059 20.7759 61.6979 20.8119 61.2419 20.8839C60.7859 20.9559 60.3899 21.0879 60.0539 21.2799C59.7179 21.4719 59.4299 21.7239 59.1899 22.0359C58.9739 22.3479 58.8659 22.7319 58.8659 23.1879C58.8659 23.5719 58.9379 23.9079 59.0819 24.1959C59.2499 24.4839 59.4539 24.7239 59.6939 24.9159C59.9579 25.1079 60.2699 25.2639 60.6299 25.3839C60.9899 25.4799 61.3499 25.5279 61.7099 25.5279C62.4059 25.5519 63.0539 25.4319 63.6539 25.1679C64.2779 24.9039 64.8179 24.5319 65.2739 24.0519C65.5619 23.6679 65.7779 23.2359 65.9219 22.7559C66.0899 22.2519 66.1739 21.5919 66.1739 20.7759Z" fill="white"/>
<path fill-rule="evenodd" clip-rule="evenodd" d="M39.9673 21.1424C39.764 24.6965 38.6148 28.1395 36.6294 31.111C34.4318 34.3999 31.3082 36.9634 27.6537 38.4771C23.9992 39.9909 19.9778 40.387 16.0982 39.6153C12.2186 38.8436 8.65492 36.9387 5.85787 34.1417C3.06082 31.3446 1.15601 27.781 0.384303 23.9014C-0.387401 20.0217 0.00866568 16.0004 1.52242 12.3459C3.03617 8.69137 5.59962 5.56779 8.8886 3.37016C11.86 1.38472 15.3031 0.235611 18.8572 0.0322266V10.0651C17.2839 10.2461 15.7702 10.7989 14.4443 11.6849C12.7998 12.7837 11.5181 14.3455 10.7612 16.1727C10.0043 18 9.8063 20.0107 10.1922 21.9505C10.578 23.8903 11.5304 25.6721 12.9289 27.0706C14.3275 28.4692 16.1093 29.4216 18.0491 29.8074C19.9889 30.1933 21.9996 29.9952 23.8268 29.2384C25.6541 28.4815 27.2159 27.1998 28.3147 25.5553C29.2006 24.2294 29.7535 22.7157 29.9345 21.1424H39.9673Z" fill="white"/>
<path fill-rule="evenodd" clip-rule="evenodd" d="M29.9937 0H21.8125V9.99998H29.9937V18.1814L39.9937 18.1814V9.99998H39.9944V0H38.1644H29.9937Z" fill="white"/>
</svg>
